<svg width="29" height="29" viewBox="0 0 29 29" fill="none" xmlns="http://www.w3.org/2000/svg">
<path d="M14.4 0C6.46125 0 0 6.46125 0 14.4C0 22.3388 6.46125 28.8 14.4 28.8C22.3388 28.8 28.8 22.3388 28.8 14.4C28.8 6.46125 22.3388 0 14.4 0ZM14.4 2.4C21.0425 2.4 26.4 7.7575 26.4 14.4C26.4 20.4325 21.975 25.3938 16.1863 26.255V17.8988H19.6038L20.14 14.4275H16.1863V12.5313C16.1863 11.09 16.66 9.81125 18.0075 9.81125H20.1738V6.7825C19.7925 6.73125 18.9875 6.61875 17.4663 6.61875C14.2888 6.61875 12.4275 8.29625 12.4275 12.1188V14.4275H9.16V17.8988H12.4275V26.2238C6.73125 25.285 2.4 20.3675 2.4 14.4C2.4 7.7575 7.75875 2.4 14.4 2.4Z" fill="white"/>
</svg>
