<svg width="29" height="29" viewBox="0 0 29 29" fill="none" xmlns="http://www.w3.org/2000/svg">
<path d="M14.3938 2.59646C18.2363 2.59646 18.6913 2.60896 20.2113 2.67896C21.6125 2.74146 22.3763 2.97521 22.8875 3.17771C23.5563 3.43646 24.0363 3.75146 24.54 4.25646C25.045 4.76146 25.355 5.24021 25.62 5.90896C25.815 6.41396 26.0488 7.17771 26.1188 8.58521C26.1875 10.1052 26.2 10.5602 26.2 14.4027C26.2 18.2465 26.1875 18.7002 26.1188 20.2215C26.055 21.6215 25.8213 22.3852 25.62 22.8965C25.3613 23.5652 25.045 24.0452 24.54 24.5502C24.0363 25.0552 23.5563 25.364 22.8875 25.629C22.3825 25.8252 21.6188 26.0577 20.2113 26.1277C18.6913 26.1965 18.2363 26.209 14.3938 26.209C10.5513 26.209 10.0963 26.1965 8.57625 26.1277C7.175 26.064 6.41125 25.8315 5.9 25.629C5.23125 25.3702 4.75125 25.0552 4.24625 24.5502C3.7425 24.0452 3.4325 23.5652 3.1675 22.8965C2.9725 22.3915 2.73875 21.6277 2.66875 20.2215C2.6 18.7002 2.5875 18.2465 2.5875 14.4027C2.5875 10.5602 2.6 10.1052 2.66875 8.58521C2.7325 7.18396 2.96625 6.42021 3.1675 5.90896C3.42625 5.24021 3.7425 4.76146 4.24625 4.25646C4.75125 3.75146 5.23125 3.44271 5.9 3.17771C6.405 2.98146 7.16875 2.74771 8.57625 2.67896C10.0963 2.60896 10.5513 2.59646 14.3938 2.59646ZM14.3938 0.00270966C10.4813 0.00270966 9.995 0.0214597 8.45625 0.0914597C6.9225 0.16146 5.875 0.40646 4.96 0.76021C4.01375 1.12646 3.2125 1.61896 2.41 2.42021C1.615 3.22146 1.12375 4.02271 0.7575 4.96896C0.40375 5.88396 0.1575 6.93146 0.08875 8.46521C0.01875 9.99896 0 10.4902 0 14.3965C0 18.309 0.01875 18.7952 0.08875 20.3352C0.1575 21.8677 0.40375 22.9152 0.7575 23.8302C1.12375 24.7777 1.615 25.579 2.41625 26.3802C3.21875 27.1815 4.02 27.674 4.96625 28.039C5.88125 28.3927 6.92875 28.639 8.4625 28.709C9.995 28.7777 10.4875 28.7965 14.4 28.7965C18.3125 28.7965 18.7988 28.7777 20.3375 28.709C21.8713 28.639 22.9188 28.3927 23.8338 28.039C24.78 27.674 25.5813 27.1815 26.3838 26.3802C27.185 25.579 27.6763 24.7777 28.0425 23.8302C28.3963 22.9152 28.6425 21.8677 28.7113 20.3352C28.7813 18.8015 28.8 18.309 28.8 14.3965C28.8 10.484 28.7813 9.99896 28.7113 8.45896C28.6425 6.92521 28.3963 5.87771 28.0425 4.96271C27.6763 4.01646 27.185 3.21521 26.3838 2.41396C25.5813 1.61271 24.78 1.12021 23.8338 0.75396C22.9188 0.40021 21.8713 0.153959 20.3375 0.0852097C18.7988 0.0214596 18.3063 0.00270966 14.3938 0.00270966Z" fill="white"/>
<path d="M14.3939 7.00745C10.3114 7.00745 7.00513 10.3137 7.00513 14.3962C7.00513 18.4787 10.3176 21.7924 14.4001 21.7924C18.4826 21.7924 21.7951 18.4849 21.7951 14.3962C21.7889 10.3137 18.4764 7.00745 14.3939 7.00745ZM14.3939 19.1987C11.7439 19.1987 9.59763 17.0537 9.59763 14.4024C9.59763 11.7524 11.7439 9.60745 14.3939 9.60745C17.0439 9.60745 19.1901 11.7524 19.1901 14.4024C19.1964 17.0462 17.0439 19.1987 14.3939 19.1987Z" fill="white"/>
<path d="M23.8088 6.71743C23.8088 7.66993 23.0326 8.44618 22.0801 8.44618C21.1263 8.44618 20.3501 7.66993 20.3501 6.71743C20.3501 5.76368 21.1263 4.98743 22.0801 4.98743C23.0326 4.98743 23.8088 5.75743 23.8088 6.71743Z" fill="white"/>
</svg>
