<svg xmlns="http://www.w3.org/2000/svg" xmlns:xlink="http://www.w3.org/1999/xlink" width="600" zoomAndPan="magnify" viewBox="0 0 450 225" height="300" preserveAspectRatio="xMidYMid meet" version="1.0"><defs><clipPath id="9caec593ce"><path d="M 22.5 78.414062 L 112.5 78.414062 L 112.5 168.414062 L 22.5 168.414062 Z M 22.5 78.414062 " clip-rule="nonzero"/></clipPath><clipPath id="bd7acc62de"><path d="M 165.851562 78.414062 L 255.851562 78.414062 L 255.851562 168.414062 L 165.851562 168.414062 Z M 165.851562 78.414062 " clip-rule="nonzero"/></clipPath><clipPath id="ab43dd63ec"><path d="M 309.101562 78.414062 L 399.101562 78.414062 L 399.101562 168.414062 L 309.101562 168.414062 Z M 309.101562 78.414062 " clip-rule="nonzero"/></clipPath></defs><g clip-path="url(#9caec593ce)"><path fill="#010101" d="M 67.480469 86.527344 C 79.488281 86.527344 80.910156 86.566406 85.660156 86.785156 C 90.039062 86.980469 92.425781 87.710938 94.023438 88.34375 C 96.113281 89.152344 97.613281 90.136719 99.1875 91.714844 C 100.765625 93.292969 101.734375 94.789062 102.5625 96.878906 C 103.171875 98.457031 103.902344 100.84375 104.121094 105.242188 C 104.335938 109.992188 104.375 111.414062 104.375 123.421875 C 104.375 135.433594 104.335938 136.851562 104.121094 141.605469 C 103.921875 145.980469 103.191406 148.367188 102.5625 149.964844 C 101.753906 152.054688 100.765625 153.554688 99.1875 155.132812 C 97.613281 156.710938 96.113281 157.675781 94.023438 158.503906 C 92.445312 159.117188 90.058594 159.84375 85.660156 160.0625 C 80.910156 160.277344 79.488281 160.316406 67.480469 160.316406 C 55.472656 160.316406 54.050781 160.277344 49.300781 160.0625 C 44.921875 159.863281 42.535156 159.136719 40.9375 158.503906 C 38.847656 157.695312 37.347656 156.710938 35.769531 155.132812 C 34.195312 153.554688 33.226562 152.054688 32.398438 149.964844 C 31.789062 148.386719 31.058594 146 30.839844 141.605469 C 30.625 136.851562 30.585938 135.433594 30.585938 123.421875 C 30.585938 111.414062 30.625 109.992188 30.839844 105.242188 C 31.039062 100.863281 31.769531 98.476562 32.398438 96.878906 C 33.207031 94.789062 34.195312 93.292969 35.769531 91.714844 C 37.347656 90.136719 38.847656 89.171875 40.9375 88.34375 C 42.515625 87.730469 44.902344 87 49.300781 86.785156 C 54.050781 86.566406 55.472656 86.527344 67.480469 86.527344 M 67.480469 78.421875 C 55.253906 78.421875 53.734375 78.480469 48.925781 78.699219 C 44.132812 78.917969 40.859375 79.683594 38 80.789062 C 35.042969 81.933594 32.539062 83.472656 30.03125 85.976562 C 27.546875 88.480469 26.011719 90.984375 24.867188 93.941406 C 23.761719 96.800781 22.992188 100.074219 22.777344 104.867188 C 22.558594 109.660156 22.5 111.195312 22.5 123.402344 C 22.5 135.628906 22.558594 137.148438 22.777344 141.960938 C 22.992188 146.75 23.761719 150.023438 24.867188 152.882812 C 26.011719 155.84375 27.546875 158.347656 30.050781 160.851562 C 32.558594 163.355469 35.0625 164.894531 38.019531 166.035156 C 40.878906 167.140625 44.152344 167.910156 48.945312 168.128906 C 53.734375 168.34375 55.273438 168.402344 67.5 168.402344 C 79.726562 168.402344 81.246094 168.34375 86.054688 168.128906 C 90.847656 167.910156 94.121094 167.140625 96.980469 166.035156 C 99.9375 164.894531 102.441406 163.355469 104.949219 160.851562 C 107.453125 158.347656 108.988281 155.84375 110.132812 152.882812 C 111.238281 150.023438 112.007812 146.75 112.222656 141.960938 C 112.441406 137.167969 112.5 135.628906 112.5 123.402344 C 112.5 111.175781 112.441406 109.660156 112.222656 104.847656 C 112.007812 100.054688 111.238281 96.78125 110.132812 93.921875 C 108.988281 90.964844 107.453125 88.460938 104.949219 85.957031 C 102.441406 83.453125 99.9375 81.914062 96.980469 80.769531 C 94.121094 79.664062 90.847656 78.894531 86.054688 78.679688 C 81.246094 78.480469 79.707031 78.421875 67.480469 78.421875 " fill-opacity="1" fill-rule="nonzero"/></g><path fill="#010101" d="M 67.480469 100.3125 C 54.722656 100.3125 44.390625 110.644531 44.390625 123.402344 C 44.390625 136.160156 54.742188 146.515625 67.5 146.515625 C 80.257812 146.515625 90.609375 136.179688 90.609375 123.402344 C 90.589844 110.644531 80.238281 100.3125 67.480469 100.3125 M 67.480469 138.410156 C 59.199219 138.410156 52.492188 131.707031 52.492188 123.421875 C 52.492188 115.140625 59.199219 108.4375 67.480469 108.4375 C 75.761719 108.4375 82.46875 115.140625 82.46875 123.421875 C 82.488281 131.683594 75.761719 138.410156 67.480469 138.410156 " fill-opacity="1" fill-rule="nonzero"/><path fill="#010101" d="M 96.902344 99.40625 C 96.902344 102.382812 94.476562 104.808594 91.5 104.808594 C 88.519531 104.808594 86.09375 102.382812 86.09375 99.40625 C 86.09375 96.425781 88.519531 94 91.5 94 C 94.476562 94 96.902344 96.40625 96.902344 99.40625 " fill-opacity="1" fill-rule="nonzero"/><g clip-path="url(#bd7acc62de)"><path fill="#000000" d="M 210.851562 78.414062 C 186.042969 78.414062 165.851562 98.605469 165.851562 123.414062 C 165.851562 148.222656 186.042969 168.414062 210.851562 168.414062 C 235.660156 168.414062 255.851562 148.222656 255.851562 123.414062 C 255.851562 98.605469 235.660156 78.414062 210.851562 78.414062 Z M 210.851562 85.914062 C 231.609375 85.914062 248.351562 102.65625 248.351562 123.414062 C 248.351562 142.265625 234.523438 157.769531 216.433594 160.460938 L 216.433594 134.347656 L 227.113281 134.347656 L 228.789062 123.5 L 216.433594 123.5 L 216.433594 117.574219 C 216.433594 113.070312 217.914062 109.074219 222.125 109.074219 L 228.894531 109.074219 L 228.894531 99.609375 C 227.703125 99.449219 225.1875 99.097656 220.433594 99.097656 C 210.503906 99.097656 204.6875 104.339844 204.6875 116.285156 L 204.6875 123.5 L 194.476562 123.5 L 194.476562 134.347656 L 204.6875 134.347656 L 204.6875 160.363281 C 186.886719 157.429688 173.351562 142.0625 173.351562 123.414062 C 173.351562 102.65625 190.097656 85.914062 210.851562 85.914062 Z M 210.851562 85.914062 " fill-opacity="1" fill-rule="nonzero"/></g><g clip-path="url(#ab43dd63ec)"><path fill="#000000" d="M 390.921875 78.414062 L 317.285156 78.414062 C 312.765625 78.414062 309.101562 82.074219 309.101562 86.59375 L 309.101562 160.230469 C 309.101562 164.75 312.765625 168.414062 317.285156 168.414062 L 390.921875 168.414062 C 395.441406 168.414062 399.101562 164.75 399.101562 160.230469 L 399.101562 86.59375 C 399.101562 82.074219 395.4375 78.414062 390.921875 78.414062 Z M 385.558594 117.171875 C 385.027344 117.21875 384.492188 117.253906 383.949219 117.253906 C 377.835938 117.253906 372.460938 114.109375 369.328125 109.351562 C 369.328125 121.824219 369.328125 136.019531 369.328125 136.257812 C 369.328125 147.242188 360.421875 156.144531 349.445312 156.144531 C 338.464844 156.140625 329.558594 147.234375 329.558594 136.253906 C 329.558594 125.269531 338.464844 116.367188 349.445312 116.367188 C 349.859375 116.367188 350.265625 116.40625 350.671875 116.429688 L 350.671875 126.230469 C 350.261719 126.183594 349.863281 126.109375 349.445312 126.109375 C 343.839844 126.109375 339.292969 130.652344 339.292969 136.257812 C 339.292969 141.863281 343.835938 146.40625 349.445312 146.40625 C 355.050781 146.40625 360.003906 141.988281 360.003906 136.386719 C 360.003906 136.160156 360.101562 90.691406 360.101562 90.691406 L 369.464844 90.691406 C 370.34375 99.0625 377.105469 105.675781 385.558594 106.28125 Z M 385.558594 117.171875 " fill-opacity="1" fill-rule="nonzero"/></g></svg>