<svg width="443" height="427" viewBox="0 0 443 427" fill="none" xmlns="http://www.w3.org/2000/svg">
<g clip-path="url(#clip0_8_498)">
<path d="M46.4966 66.1729V136.703H82.9333C92.4486 136.703 107.815 134.657 108.18 120.624C108.692 101.863 84.3962 101.44 75.9838 97.1348C79.86 97.6997 81.3967 98.1222 84.8392 98.1222C94.6405 98.1222 105.18 92.34 105.18 82.6791C105.18 72.5912 97.497 66.1729 87.1049 66.1729H46.4966ZM49.7868 69.2063H60.1788C73.3488 69.2063 83.8839 77.4572 83.8839 87.3316C83.8839 91.566 80.4461 95.0221 76.0576 95.0221C65.5179 95.0221 51.1066 76.6121 49.7868 69.2063ZM84.3269 122.243C84.3269 130.779 76.7129 134.306 71.0831 134.306V125.348C71.0831 107.997 52.131 86.2063 52.131 80.7754C62.4446 95.4446 84.3269 106.871 84.3269 122.243Z" fill="#EFD1D1"/>
<path d="M121.927 136.703H148.267V66.1728H121.927V136.703Z" fill="#EFD1D1"/>
<path d="M164.601 66.3301V136.861H219.551V101.598H218.818C216.187 120.853 205.209 132.204 190.941 134.112V66.3301H164.601Z" fill="#EFD1D1"/>
<path d="M231.661 66.3301V136.861H286.611V101.598H285.877C283.247 120.853 272.269 132.204 258.001 134.112V66.3301H231.661Z" fill="#EFD1D1"/>
<path d="M302.784 136.861H329.124V66.3301H302.784V136.861Z" fill="#EFD1D1"/>
<path d="M343.427 100.935C343.427 122.022 357.183 137.608 377.888 137.608C398.599 137.608 405.184 123.219 405.184 123.219V89.0144H366.329V89.7216C372.475 92.3281 402.987 102.131 402.987 115.813C402.987 120.47 397.5 122.303 392.595 122.303C378.327 122.303 358.867 106.01 358.867 80.9725C358.867 73.7091 363.403 67.2196 372.254 67.2196C383.597 67.2196 394.427 78.7886 399.623 86.826L405.036 71.8054C405.036 71.8054 396.55 64.2573 377.888 64.2573C357.183 64.2573 343.427 79.8472 343.427 100.935Z" fill="#EFD1D1"/>
<path d="M71.0093 235.196V198.59C74.8855 203.389 84.0316 214.811 84.0316 224.548C84.0316 229.414 83.0072 232.727 81.6182 235.196H109.933C110.593 232.798 110.667 231.033 110.667 228.92C110.667 198.238 72.1075 204.02 72.1075 193.301C72.1075 187.59 77.2251 183.146 83.081 183.146C94.1283 183.146 103.058 193.937 106.86 202.753H107.594V166.431C105.766 164.665 102.033 163.255 98.1522 163.255C84.47 163.255 74.7378 175.95 71.0093 187.167V164.665H46.4966V235.196H71.0093Z" fill="#EFD1D1"/>
<path d="M139.194 235.693C151.778 235.693 159.097 227.651 159.097 210.798V163.752H122.439C131.147 179.342 150.172 216.723 149.951 226.103C149.877 229.066 148.71 230.827 145.853 230.827C136.781 230.827 133.634 211.221 133.634 193.376H132.9L121.927 228.287C125.66 232.379 131.073 235.693 139.194 235.693Z" fill="#EFD1D1"/>
<path d="M174.761 187.664V234.283H200.003C200.811 232.451 201.102 230.476 201.102 228.501C201.102 219.685 193.566 209.175 188.079 199.02H206.514V234.283H232.859V163.752H198.393C179.81 163.752 174.761 177.648 174.761 187.664ZM182.371 181.74C182.371 177.012 184.346 166.715 196.127 166.715C200.885 166.715 203.077 166.715 206.514 166.715V196.551H186.833C184.198 191.401 182.371 186.392 182.371 181.74Z" fill="#EFD1D1"/>
<path d="M272.504 235.196V211.355C274.991 212.485 278.134 213.192 282.305 213.192C294.16 213.192 309.601 207.41 309.601 188.929C309.601 170.452 296.209 164.665 283.768 164.665H247.917V235.196H272.504ZM272.504 167.134H274.11C282.891 167.134 284.28 180.82 284.28 188.226C284.28 195.56 282.891 209.313 274.11 209.313H272.504V167.134Z" fill="#EFD1D1"/>
<path d="M322.905 209.736C322.905 184.414 338.71 169.465 349.245 166.854C349.684 191.749 337.903 225.535 330.072 235.196H372.295C364.464 225.535 352.683 191.749 352.683 166.854C363.292 169.465 379.097 184.414 379.097 209.736H380.929V164.665H321.073V209.736H322.905Z" fill="#EFD1D1"/>
<path d="M46.6316 331.571H101.582V296.308H100.848C98.218 315.563 87.2399 326.914 72.9716 328.822V293.697C76.9217 294.898 81.9009 304.417 82.9253 312.245H83.6544V273.806H82.9253C81.9009 281.639 76.9217 291.157 72.9716 292.358V263.723C86.9492 264.99 95.7261 271.337 100.848 290.312H101.582V261.04H46.6316V331.571Z" fill="#EFD1D1"/>
<path d="M115.83 261.175V331.705H130.316C131.197 331.141 132.074 329.094 132.074 324.793C132.074 310.195 118.465 294.89 118.465 272.392V267.171L146.342 331.705H174.219V261.175H159.733C158.852 261.74 157.975 263.786 157.975 268.087C157.975 282.689 171.584 297.995 171.584 320.492V325.638L143.486 261.175H115.83Z" fill="#EFD1D1"/>
<path d="M211.467 331.252V294.646C215.343 299.445 224.489 310.868 224.489 320.604C224.489 325.47 223.465 328.784 222.076 331.252H250.391C251.051 328.855 251.125 327.089 251.125 324.976C251.125 294.295 212.565 300.077 212.565 289.357C212.565 283.646 217.683 279.203 223.539 279.203C234.586 279.203 243.515 289.993 247.317 298.809H248.051V262.488C246.224 260.722 242.491 259.312 238.61 259.312C224.928 259.312 215.195 272.006 211.467 283.224V260.722H186.954V331.252H211.467Z" fill="#EFD1D1"/>
<path d="M260.11 331.705H315.061V296.442H314.327C311.697 315.697 300.718 327.048 286.45 328.957V293.831C290.4 295.032 295.379 304.551 296.404 312.379H297.133V273.94H296.404C295.379 281.773 290.4 291.292 286.45 292.493V263.857C300.428 265.125 309.205 271.472 314.327 290.447H315.061V261.175H260.11V331.705Z" fill="#EFD1D1"/>
<path d="M325.138 261.175V331.705H380.088V296.442H379.354C376.724 315.697 365.746 327.048 351.478 328.957V261.175H325.138Z" fill="#EFD1D1"/>
<path d="M385.901 306.246C385.901 280.924 401.706 265.974 412.241 263.363C412.679 288.258 400.898 322.045 393.067 331.705H435.291C427.46 322.045 415.679 288.258 415.679 263.363C426.288 265.974 442.093 280.924 442.093 306.246H443.925V261.175H384.069V306.246H385.901Z" fill="#EFD1D1"/>
</g>
<defs>
<clipPath id="clip0_8_498">
<rect width="443" height="427" fill="white"/>
</clipPath>
</defs>
</svg>
