<svg xmlns="http://www.w3.org/2000/svg" xmlns:xlink="http://www.w3.org/1999/xlink" width="500" zoomAndPan="magnify" viewBox="0 0 375 374.999991" height="500" preserveAspectRatio="xMidYMid meet" version="1.0"><defs><g/></defs><g fill="#f5bcb1" fill-opacity="1"><g transform="translate(37.500002, 120.05575)"><g><path d="M 1.859375 -61.941406 L 1.859375 0 L 32.703125 0 C 40.757812 0 53.765625 -1.796875 54.074219 -14.121094 C 54.507812 -30.597656 33.941406 -30.96875 26.820312 -34.75 C 30.101562 -34.253906 31.402344 -33.882812 34.316406 -33.882812 C 42.613281 -33.882812 51.535156 -38.960938 51.535156 -47.445312 C 51.535156 -56.304688 45.03125 -61.941406 36.234375 -61.941406 Z M 4.644531 -59.277344 L 13.441406 -59.277344 C 24.589844 -59.277344 33.507812 -52.03125 33.507812 -43.359375 C 33.507812 -39.640625 30.597656 -36.605469 26.882812 -36.605469 C 17.960938 -36.605469 5.761719 -52.773438 4.644531 -59.277344 Z M 33.882812 -12.699219 C 33.882812 -5.203125 27.4375 -2.105469 22.671875 -2.105469 L 22.671875 -9.972656 C 22.671875 -25.210938 6.628906 -44.347656 6.628906 -49.117188 C 15.359375 -36.234375 33.882812 -26.199219 33.882812 -12.699219 Z M 33.882812 -12.699219 "/></g></g></g><g fill="#f5bcb1" fill-opacity="1"><g transform="translate(93.426492, 120.05575)"><g><path d="M 1.859375 0 L 24.15625 0 L 24.15625 -61.941406 L 1.859375 -61.941406 Z M 1.859375 0 "/></g></g></g><g fill="#f5bcb1" fill-opacity="1"><g transform="translate(119.438816, 120.05575)"><g><path d="M 1.859375 -61.941406 L 1.859375 0 L 48.375 0 L 48.375 -30.96875 L 47.753906 -30.96875 C 45.527344 -14.058594 36.234375 -4.089844 24.15625 -2.414062 L 24.15625 -61.941406 Z M 1.859375 -61.941406 "/></g></g></g><g fill="#f5bcb1" fill-opacity="1"><g transform="translate(169.667364, 120.05575)"><g><path d="M 1.859375 -61.941406 L 1.859375 0 L 48.375 0 L 48.375 -30.96875 L 47.753906 -30.96875 C 45.527344 -14.058594 36.234375 -4.089844 24.15625 -2.414062 L 24.15625 -61.941406 Z M 1.859375 -61.941406 "/></g></g></g><g fill="#f5bcb1" fill-opacity="1"><g transform="translate(219.895911, 120.05575)"><g><path d="M 1.859375 0 L 24.15625 0 L 24.15625 -61.941406 L 1.859375 -61.941406 Z M 1.859375 0 "/></g></g></g><g fill="#f5bcb1" fill-opacity="1"><g transform="translate(245.908235, 120.05575)"><g><path d="M 0.929688 -30.96875 C 0.929688 -12.449219 12.574219 1.238281 30.101562 1.238281 C 47.632812 1.238281 53.207031 -11.398438 53.207031 -11.398438 L 53.207031 -41.4375 L 20.316406 -41.4375 L 20.316406 -40.816406 C 25.519531 -38.527344 51.347656 -29.917969 51.347656 -17.902344 C 51.347656 -13.8125 46.703125 -12.203125 42.550781 -12.203125 C 30.472656 -12.203125 14 -26.511719 14 -48.5 C 14 -54.878906 17.839844 -60.578125 25.332031 -60.578125 C 34.933594 -60.578125 44.101562 -50.417969 48.5 -43.359375 L 53.082031 -56.550781 C 53.082031 -56.550781 45.898438 -63.179688 30.101562 -63.179688 C 12.574219 -63.179688 0.929688 -49.488281 0.929688 -30.96875 Z M 0.929688 -30.96875 "/></g></g></g><g fill="#f5bcb1" fill-opacity="1"><g transform="translate(300.967645, 120.05575)"><g><path d="M 10.964844 1.238281 C 11.707031 4.027344 10.15625 8.546875 5.824219 8.671875 C 6.75 9.351562 8.050781 9.414062 9.105469 9.414062 C 16.226562 9.414062 20.441406 2.167969 20.441406 -4.707031 C 20.441406 -10.839844 17.652344 -16.910156 10.964844 -16.910156 C 5.511719 -16.910156 1.859375 -13.253906 1.859375 -7.867188 C 1.859375 -2.414062 5.511719 1.238281 10.964844 1.238281 Z M 10.964844 1.238281 "/></g></g></g><g fill="#f5bcb1" fill-opacity="1"><g transform="translate(323.25907, 120.05575)"><g/></g></g><g fill="#f5bcb1" fill-opacity="1"><g transform="translate(37.500002, 206.553748)"><g><path d="M 22.609375 0 L 22.609375 -32.148438 C 25.890625 -27.933594 33.632812 -17.902344 33.632812 -9.351562 C 33.632812 -5.078125 32.765625 -2.167969 31.589844 0 L 55.558594 0 C 56.117188 -2.105469 56.179688 -3.65625 56.179688 -5.511719 C 56.179688 -32.457031 23.539062 -27.378906 23.539062 -36.792969 C 23.539062 -41.808594 27.871094 -45.710938 32.828125 -45.710938 C 42.179688 -45.710938 49.738281 -36.234375 52.957031 -28.492188 L 53.578125 -28.492188 L 53.578125 -60.390625 C 52.03125 -61.941406 48.871094 -63.179688 45.585938 -63.179688 C 34.003906 -63.179688 25.765625 -52.03125 22.609375 -42.179688 L 22.609375 -61.941406 L 1.859375 -61.941406 L 1.859375 0 Z M 22.609375 0 "/></g></g></g><g fill="#f5bcb1" fill-opacity="1"><g transform="translate(94.912907, 206.553748)"><g><path d="M 14.617188 1.238281 C 25.269531 1.238281 31.464844 -5.824219 31.464844 -20.625 L 31.464844 -61.941406 L 0.433594 -61.941406 C 7.804688 -48.25 23.910156 -15.421875 23.722656 -7.183594 C 23.660156 -4.582031 22.671875 -3.035156 20.253906 -3.035156 C 12.574219 -3.035156 9.910156 -20.253906 9.910156 -35.925781 L 9.289062 -35.925781 L 0 -5.265625 C 3.160156 -1.671875 7.742188 1.238281 14.617188 1.238281 Z M 14.617188 1.238281 "/></g></g></g><g fill="#f5bcb1" fill-opacity="1"><g transform="translate(128.233451, 206.553748)"><g><path d="M 1.859375 -40.941406 L 1.859375 0 L 23.226562 0 C 23.910156 -1.609375 24.15625 -3.34375 24.15625 -5.078125 C 24.15625 -12.820312 17.777344 -22.050781 13.132812 -30.96875 L 28.738281 -30.96875 L 28.738281 0 L 51.039062 0 L 51.039062 -61.941406 L 21.863281 -61.941406 C 6.132812 -61.941406 1.859375 -49.738281 1.859375 -40.941406 Z M 8.300781 -46.144531 C 8.300781 -50.296875 9.972656 -59.339844 19.945312 -59.339844 C 23.972656 -59.339844 25.828125 -59.339844 28.738281 -59.339844 L 28.738281 -33.136719 L 12.078125 -33.136719 C 9.847656 -37.660156 8.300781 -42.058594 8.300781 -46.144531 Z M 8.300781 -46.144531 "/></g></g></g><g fill="#f5bcb1" fill-opacity="1"><g transform="translate(181.063238, 206.553748)"><g><path d="M 22.671875 0 L 22.671875 -20.9375 C 24.777344 -19.945312 27.4375 -19.324219 30.96875 -19.324219 C 41.003906 -19.324219 54.074219 -24.402344 54.074219 -40.632812 C 54.074219 -56.859375 42.738281 -61.941406 32.207031 -61.941406 L 1.859375 -61.941406 L 1.859375 0 Z M 22.671875 -59.773438 L 24.03125 -59.773438 C 31.464844 -59.773438 32.640625 -47.753906 32.640625 -41.25 C 32.640625 -34.808594 31.464844 -22.730469 24.03125 -22.730469 L 22.671875 -22.730469 Z M 22.671875 -59.773438 "/></g></g></g><g fill="#f5bcb1" fill-opacity="1"><g transform="translate(236.060716, 206.553748)"><g><path d="M 2.789062 -22.359375 C 2.789062 -44.597656 16.167969 -57.726562 25.085938 -60.019531 C 25.457031 -38.15625 15.484375 -8.484375 8.855469 0 L 44.597656 0 C 37.96875 -8.484375 27.996094 -38.15625 27.996094 -60.019531 C 36.976562 -57.726562 50.355469 -44.597656 50.355469 -22.359375 L 51.90625 -22.359375 L 51.90625 -61.941406 L 1.238281 -61.941406 L 1.238281 -22.359375 Z M 2.789062 -22.359375 "/></g></g></g><g fill="#f5bcb1" fill-opacity="1"><g transform="translate(289.200171, 206.553748)"><g><path d="M 10.964844 1.238281 C 11.707031 4.027344 10.15625 8.546875 5.824219 8.671875 C 6.75 9.351562 8.050781 9.414062 9.105469 9.414062 C 16.226562 9.414062 20.441406 2.167969 20.441406 -4.707031 C 20.441406 -10.839844 17.652344 -16.910156 10.964844 -16.910156 C 5.511719 -16.910156 1.859375 -13.253906 1.859375 -7.867188 C 1.859375 -2.414062 5.511719 1.238281 10.964844 1.238281 Z M 10.964844 1.238281 "/></g></g></g><g fill="#f5bcb1" fill-opacity="1"><g transform="translate(311.49224, 206.553748)"><g/></g></g><g fill="#f5bcb1" fill-opacity="1"><g transform="translate(37.500002, 293.051746)"><g/></g></g><g fill="#f5bcb1" fill-opacity="1"><g transform="translate(56.071742, 293.051746)"><g><path d="M 1.859375 0 L 48.375 0 L 48.375 -30.96875 L 47.753906 -30.96875 C 45.527344 -14.058594 36.234375 -4.089844 24.15625 -2.414062 L 24.15625 -33.261719 C 27.5 -32.207031 31.714844 -23.847656 32.582031 -16.972656 L 33.199219 -16.972656 L 33.199219 -50.730469 L 32.582031 -50.730469 C 31.714844 -43.851562 27.5 -35.492188 24.15625 -34.4375 L 24.15625 -59.585938 C 35.988281 -58.472656 43.417969 -52.898438 47.753906 -36.234375 L 48.375 -36.234375 L 48.375 -61.941406 L 1.859375 -61.941406 Z M 1.859375 0 "/></g></g></g><g fill="#f5bcb1" fill-opacity="1"><g transform="translate(106.30029, 293.051746)"><g><path d="M 1.859375 -61.941406 L 1.859375 0 L 14.121094 0 C 14.867188 -0.496094 15.609375 -2.292969 15.609375 -6.070312 C 15.609375 -18.890625 4.089844 -32.332031 4.089844 -52.089844 L 4.089844 -56.675781 L 27.6875 0 L 51.285156 0 L 51.285156 -61.941406 L 39.023438 -61.941406 C 38.277344 -61.445312 37.535156 -59.648438 37.535156 -55.871094 C 37.535156 -43.046875 49.054688 -29.605469 49.054688 -9.847656 L 49.054688 -5.328125 L 25.269531 -61.941406 Z M 1.859375 -61.941406 "/></g></g></g><g fill="#f5bcb1" fill-opacity="1"><g transform="translate(159.439745, 293.051746)"><g><path d="M 22.609375 0 L 22.609375 -32.148438 C 25.890625 -27.933594 33.632812 -17.902344 33.632812 -9.351562 C 33.632812 -5.078125 32.765625 -2.167969 31.589844 0 L 55.558594 0 C 56.117188 -2.105469 56.179688 -3.65625 56.179688 -5.511719 C 56.179688 -32.457031 23.539062 -27.378906 23.539062 -36.792969 C 23.539062 -41.808594 27.871094 -45.710938 32.828125 -45.710938 C 42.179688 -45.710938 49.738281 -36.234375 52.957031 -28.492188 L 53.578125 -28.492188 L 53.578125 -60.390625 C 52.03125 -61.941406 48.871094 -63.179688 45.585938 -63.179688 C 34.003906 -63.179688 25.765625 -52.03125 22.609375 -42.179688 L 22.609375 -61.941406 L 1.859375 -61.941406 L 1.859375 0 Z M 22.609375 0 "/></g></g></g><g fill="#f5bcb1" fill-opacity="1"><g transform="translate(216.85264, 293.051746)"><g><path d="M 1.859375 0 L 48.375 0 L 48.375 -30.96875 L 47.753906 -30.96875 C 45.527344 -14.058594 36.234375 -4.089844 24.15625 -2.414062 L 24.15625 -33.261719 C 27.5 -32.207031 31.714844 -23.847656 32.582031 -16.972656 L 33.199219 -16.972656 L 33.199219 -50.730469 L 32.582031 -50.730469 C 31.714844 -43.851562 27.5 -35.492188 24.15625 -34.4375 L 24.15625 -59.585938 C 35.988281 -58.472656 43.417969 -52.898438 47.753906 -36.234375 L 48.375 -36.234375 L 48.375 -61.941406 L 1.859375 -61.941406 Z M 1.859375 0 "/></g></g></g><g fill="#f5bcb1" fill-opacity="1"><g transform="translate(267.081178, 293.051746)"><g><path d="M 1.859375 -61.941406 L 1.859375 0 L 48.375 0 L 48.375 -30.96875 L 47.753906 -30.96875 C 45.527344 -14.058594 36.234375 -4.089844 24.15625 -2.414062 L 24.15625 -61.941406 Z M 1.859375 -61.941406 "/></g></g></g><g fill="#f5bcb1" fill-opacity="1"><g transform="translate(317.309716, 293.051746)"><g><path d="M 2.789062 -22.359375 C 2.789062 -44.597656 16.167969 -57.726562 25.085938 -60.019531 C 25.457031 -38.15625 15.484375 -8.484375 8.855469 0 L 44.597656 0 C 37.96875 -8.484375 27.996094 -38.15625 27.996094 -60.019531 C 36.976562 -57.726562 50.355469 -44.597656 50.355469 -22.359375 L 51.90625 -22.359375 L 51.90625 -61.941406 L 1.238281 -61.941406 L 1.238281 -22.359375 Z M 2.789062 -22.359375 "/></g></g></g></svg>