<svg width="25" height="35" viewBox="0 0 25 35" fill="none" xmlns="http://www.w3.org/2000/svg">
<path d="M0.571655 22.813C0.571655 30.3945 6.65364 34.3185 12.7933 34.2842C20.9096 34.2499 24.8372 29.1964 24.8372 22.6784C24.8372 7.48102 4.12063 9.07755 4.12063 2.79436C4.12063 2.46185 4.41157 1.79685 4.79025 1.79685C8.6902 1.79685 13.5207 8.01408 18.9908 8.01408C20.9396 8.01408 23.9944 6.01908 23.9944 2.65977C23.9944 1.79685 23.7912 1.09755 23.4426 0.366577H4.49931C2.66594 0.366577 0.950336 3.72324 0.950336 6.41755C0.950336 10.2756 2.69596 13.2021 5.16893 15.5639C2.49277 16.7277 0.571655 19.7202 0.571655 22.813ZM21.0851 28.6977C21.0851 30.0937 19.949 31.2917 18.2634 31.2917C12.1237 31.2917 6.09947 20.7177 5.98402 16.2949C11.9482 21.483 21.0851 24.0427 21.0851 28.6977Z" fill="#EFD1D1"/>
</svg>
