<svg width="152" height="36" viewBox="0 0 152 36" fill="none" xmlns="http://www.w3.org/2000/svg">
<path d="M0.120117 23.645C0.120117 31.2265 6.2021 35.1505 12.3418 35.1162C20.458 35.0819 24.3857 30.0285 24.3857 23.5104C24.3857 8.31304 3.66909 9.90957 3.66909 3.62638C3.66909 3.29388 3.96003 2.62888 4.33871 2.62888C8.23866 2.62888 13.0691 8.8461 18.5392 8.8461C20.4881 8.8461 23.5429 6.8511 23.5429 3.4918C23.5429 2.62888 23.3397 1.92957 22.991 1.1986H4.04777C2.21441 1.1986 0.498798 4.55527 0.498798 7.24957C0.498798 11.1076 2.24442 14.0342 4.71739 16.396C2.04123 17.5597 0.120117 20.5522 0.120117 23.645ZM20.6335 29.5297C20.6335 30.9257 19.4975 32.1237 17.8119 32.1237C11.6722 32.1237 5.64793 21.5497 5.53248 17.1269C11.4967 22.315 20.6335 24.8747 20.6335 29.5297Z" fill="#EFD1D1"/>
<path d="M25.6943 1.1986V34.4512H31.4553C31.804 34.1847 32.1549 33.2215 32.1549 31.1922C32.1549 24.31 26.7426 17.0926 26.7426 6.48429V4.02485L37.8282 34.4512H48.9139V1.1986H43.1529C42.8042 1.46513 42.4532 2.42832 42.4532 4.45763C42.4532 11.3398 47.8656 18.5572 47.8656 29.1629V31.5907L36.6922 1.1986H25.6943Z" fill="#EFD1D1"/>
<path d="M50.6575 12.4719V34.4512H60.6948C61.0158 33.5857 61.1312 32.6568 61.1312 31.7253C61.1312 27.569 58.1364 22.6132 55.9521 17.8236H63.2856V34.4512H73.7593V1.1986H60.0552C52.6663 1.1986 50.6575 7.74832 50.6575 12.4719ZM53.6846 9.67735C53.6846 7.45013 54.4697 2.59457 59.1547 2.59457C61.0458 2.59457 61.9186 2.59457 63.2856 2.59457V16.6598H55.4579C54.412 14.2321 53.6846 11.8729 53.6846 9.67735Z" fill="#EFD1D1"/>
<path d="M88.7429 35.1162C95.4644 35.1162 100.819 30.4929 99.7708 24.6082C99.3644 26.2364 97.1223 27.036 94.9403 27.0017C89.1216 26.904 82.3122 20.2197 82.3122 8.41332C82.3122 4.8561 83.536 2.59457 85.5125 2.59457C91.0126 2.59457 93.5734 17.1929 93.8943 21.5814H94.1852L99.5376 4.09082C99.5376 4.09082 96.1641 0.5336 88.7429 0.5336C80.5089 0.5336 75.0388 7.88291 75.0388 17.8236C75.0388 27.7669 80.5089 35.1162 88.7429 35.1162Z" fill="#EFD1D1"/>
<path d="M110.825 34.4512V17.1929C112.367 19.4544 116.004 24.8404 116.004 29.4294C116.004 31.7253 115.598 33.2875 115.046 34.4512H126.305C126.568 33.3218 126.596 32.4905 126.596 31.4904C126.596 17.0267 111.261 19.7526 111.261 14.6992C111.261 12.0049 113.3 9.90957 115.628 9.90957C120.019 9.90957 123.571 14.9974 125.083 19.1536H125.374V2.02985C124.647 1.1986 123.162 0.5336 121.622 0.5336C116.18 0.5336 112.31 6.5186 110.825 11.8069V1.1986H101.079V34.4512H110.825Z" fill="#EFD1D1"/>
<path d="M127.613 23.645C127.613 31.2265 133.695 35.1505 139.835 35.1162C147.951 35.0819 151.878 30.0285 151.878 23.5104C151.878 8.31304 131.162 9.90957 131.162 3.62638C131.162 3.29388 131.453 2.62888 131.831 2.62888C135.731 2.62888 140.562 8.8461 146.032 8.8461C147.981 8.8461 151.036 6.8511 151.036 3.4918C151.036 2.62888 150.832 1.92957 150.484 1.1986H131.54C129.707 1.1986 127.992 4.55527 127.992 7.24957C127.992 11.1076 129.737 14.0342 132.21 16.396C129.534 17.5597 127.613 20.5522 127.613 23.645ZM148.126 29.5297C148.126 30.9257 146.99 32.1237 145.305 32.1237C139.165 32.1237 133.141 21.5497 133.025 17.1269C138.989 22.315 148.126 24.8747 148.126 29.5297Z" fill="#EFD1D1"/>
</svg>
