<svg xmlns="http://www.w3.org/2000/svg" xmlns:xlink="http://www.w3.org/1999/xlink" width="500" zoomAndPan="magnify" viewBox="0 0 375 374.999991" height="500" preserveAspectRatio="xMidYMid meet" version="1.0"><defs><g/></defs><g fill="#f5bcb1" fill-opacity="1"><g transform="translate(51.431245, 174.029241)"><g><path d="M 0.683594 -14.8125 C 0.683594 -4.421875 10.210938 0.957031 19.824219 0.910156 C 32.542969 0.867188 38.695312 -6.0625 38.695312 -14.996094 C 38.695312 -35.824219 6.242188 -33.636719 6.242188 -42.25 C 6.242188 -42.707031 6.699219 -43.617188 7.292969 -43.617188 C 13.398438 -43.617188 20.964844 -35.09375 29.535156 -35.09375 C 32.585938 -35.09375 37.371094 -37.828125 37.371094 -42.433594 C 37.371094 -43.617188 37.054688 -44.574219 36.507812 -45.578125 L 6.835938 -45.578125 C 3.964844 -45.578125 1.277344 -40.972656 1.277344 -37.28125 C 1.277344 -31.996094 4.011719 -27.984375 7.886719 -24.75 C 3.691406 -23.152344 0.683594 -19.050781 0.683594 -14.8125 Z M 32.816406 -6.746094 C 32.816406 -4.832031 31.039062 -3.191406 28.394531 -3.191406 C 18.777344 -3.191406 9.34375 -17.683594 9.160156 -23.746094 C 18.503906 -16.636719 32.816406 -13.125 32.816406 -6.746094 Z M 32.816406 -6.746094 "/></g></g></g><g fill="#f5bcb1" fill-opacity="1"><g transform="translate(90.809537, 174.029241)"><g><path d="M 2.050781 -16.453125 C 2.050781 -32.816406 11.894531 -42.476562 18.457031 -44.164062 C 18.730469 -28.074219 11.394531 -6.242188 6.515625 0 L 32.816406 0 C 27.9375 -6.242188 20.601562 -28.074219 20.601562 -44.164062 C 27.210938 -42.476562 37.054688 -32.816406 37.054688 -16.453125 L 38.191406 -16.453125 L 38.191406 -45.578125 L 0.910156 -45.578125 L 0.910156 -16.453125 Z M 2.050781 -16.453125 "/></g></g></g><g fill="#f5bcb1" fill-opacity="1"><g transform="translate(129.914366, 174.029241)"><g><path d="M 1.367188 -45.578125 L 1.367188 -15.449219 C 1.367188 -8.980469 4.601562 0 15.859375 0 L 36.734375 0 L 36.734375 -45.578125 L 20.328125 -45.578125 L 20.328125 -4.191406 C 18.550781 -3.054688 16.179688 -2.597656 13.398438 -2.597656 C 7.019531 -2.597656 5.285156 -8.570312 5.285156 -11.621094 C 5.285156 -21.054688 16.863281 -32.769531 16.953125 -41.839844 C 16.953125 -43.117188 16.773438 -44.390625 16.269531 -45.578125 Z M 1.367188 -45.578125 "/></g></g></g><g fill="#f5bcb1" fill-opacity="1"><g transform="translate(168.016512, 174.029241)"><g><path d="M 1.367188 -45.578125 L 1.367188 0 L 21.648438 0 C 28.894531 0 39.699219 -7.199219 39.699219 -22.789062 C 39.699219 -38.375 28.894531 -45.578125 21.648438 -45.578125 Z M 16.679688 -1.59375 L 16.679688 -43.980469 L 18.6875 -43.980469 C 24.019531 -43.980469 24.019531 -33.679688 24.019531 -22.789062 C 24.019531 -12.125 23.746094 -1.59375 18.6875 -1.59375 Z M 16.679688 -1.59375 "/></g></g></g><g fill="#f5bcb1" fill-opacity="1"><g transform="translate(208.397488, 174.029241)"><g><path d="M 1.367188 0 L 35.59375 0 L 35.59375 -22.789062 L 35.140625 -22.789062 C 33.5 -10.347656 26.664062 -3.007812 17.773438 -1.777344 L 17.773438 -24.476562 C 20.234375 -23.699219 23.335938 -17.546875 23.972656 -12.488281 L 24.429688 -12.488281 L 24.429688 -37.328125 L 23.972656 -37.328125 C 23.335938 -32.269531 20.234375 -26.117188 17.773438 -25.339844 L 17.773438 -43.84375 C 26.480469 -43.023438 31.949219 -38.921875 35.140625 -26.664062 L 35.59375 -26.664062 L 35.59375 -45.578125 L 1.367188 -45.578125 Z M 1.367188 0 "/></g></g></g><g fill="#f5bcb1" fill-opacity="1"><g transform="translate(245.360209, 174.029241)"><g><path d="M 1.367188 -45.578125 L 1.367188 0 L 10.390625 0 C 10.9375 -0.363281 11.484375 -1.6875 11.484375 -4.464844 C 11.484375 -13.902344 3.007812 -23.792969 3.007812 -38.328125 L 3.007812 -41.703125 L 20.371094 0 L 37.738281 0 L 37.738281 -45.578125 L 28.714844 -45.578125 C 28.167969 -45.210938 27.621094 -43.890625 27.621094 -41.109375 C 27.621094 -31.675781 36.097656 -21.785156 36.097656 -7.246094 L 36.097656 -3.917969 L 18.59375 -45.578125 Z M 1.367188 -45.578125 "/></g></g></g><g fill="#f5bcb1" fill-opacity="1"><g transform="translate(284.465038, 174.029241)"><g><path d="M 2.050781 -16.453125 C 2.050781 -32.816406 11.894531 -42.476562 18.457031 -44.164062 C 18.730469 -28.074219 11.394531 -6.242188 6.515625 0 L 32.816406 0 C 27.9375 -6.242188 20.601562 -28.074219 20.601562 -44.164062 C 27.210938 -42.476562 37.054688 -32.816406 37.054688 -16.453125 L 38.191406 -16.453125 L 38.191406 -45.578125 L 0.910156 -45.578125 L 0.910156 -16.453125 Z M 2.050781 -16.453125 "/></g></g></g><g fill="#f5bcb1" fill-opacity="1"><g transform="translate(103.546243, 214.491786)"><g><path d="M 13.683594 -20.265625 C 8.289062 -23.464844 6.140625 -24.652344 6.140625 -26.492188 C 6.140625 -27.503906 6.886719 -28.203125 8.332031 -28.203125 C 12.71875 -28.203125 18.816406 -24.035156 23.773438 -17.371094 L 24.035156 -17.371094 L 24.035156 -30.089844 L 23.816406 -30.089844 L 21.011719 -28.335938 C 19.386719 -29.34375 16.929688 -30.179688 13.859375 -30.179688 C 7.765625 -30.179688 2.808594 -27.941406 2.71875 -21.710938 C 2.632812 -16.929688 5.746094 -14.695312 9.429688 -12.5 L 14.519531 -9.386719 C 18.6875 -6.929688 22.28125 -5.261719 22.28125 -3.289062 C 22.28125 -2.457031 21.710938 -1.578125 19.738281 -1.578125 C 16.40625 -1.578125 7.324219 -4.167969 2.019531 -14.695312 L 1.710938 -14.648438 L 2.457031 -1.140625 C 6.402344 -0.570312 10 0.878906 14.253906 0.878906 C 21.84375 0.878906 25.617188 -3.773438 25.617188 -8.464844 C 25.617188 -12.195312 23.203125 -14.5625 18.949219 -17.0625 Z M 13.683594 -20.265625 "/></g></g></g><g fill="#f5bcb1" fill-opacity="1"><g transform="translate(130.608658, 214.491786)"><g><path d="M 16.625 -29.34375 C 21.667969 -24.125 25.660156 -16.316406 25.660156 -8.816406 L 25.660156 -6.230469 L 25.398438 -6.230469 L 11.097656 -29.609375 L 0.65625 -29.609375 L 0.65625 -29.386719 L 3.640625 -24.738281 L 3.640625 0 L 13.816406 0 L 13.816406 -0.261719 C 8.421875 -5.570312 4.648438 -12.019531 4.648438 -20.394531 L 4.648438 -23.292969 L 4.867188 -23.292969 L 19.210938 0.0859375 L 26.625 0.0859375 L 26.625 -29.609375 L 16.625 -29.609375 Z M 16.625 -29.34375 "/></g></g></g><g fill="#f5bcb1" fill-opacity="1"><g transform="translate(160.171167, 214.491786)"><g><path d="M 8.816406 -29.609375 L 8.816406 -29.34375 L 10.703125 -24.035156 L 0.308594 -0.261719 L 0.308594 0 L 11.535156 0 L 11.535156 -0.261719 C 9.5625 -2.5 8.464844 -6.097656 8.378906 -10.265625 L 15.570312 -10.265625 L 18.203125 -2.542969 L 15.964844 -0.261719 L 15.964844 0 L 27.851562 0 L 27.851562 -0.261719 L 17.851562 -29.609375 Z M 8.378906 -11.054688 C 8.464844 -13.859375 8.992188 -16.929688 10.042969 -19.957031 L 11.054688 -22.808594 L 11.316406 -22.808594 L 15.308594 -11.054688 Z M 8.378906 -11.054688 "/></g></g></g><g fill="#f5bcb1" fill-opacity="1"><g transform="translate(188.417836, 214.491786)"><g><path d="M 16.054688 0.484375 C 17.105469 0.484375 23.378906 -4.167969 26.140625 -6.492188 L 25.96875 -6.753906 C 24.605469 -6.273438 23.292969 -5.964844 21.886719 -5.964844 C 11.359375 -5.964844 7.367188 -16.625 7.367188 -22.941406 C 7.414062 -26.625 9.078125 -28.074219 10.746094 -28.074219 C 12.632812 -28.074219 16.449219 -26.582031 18.90625 -17.894531 L 19.167969 -17.808594 L 26.363281 -24.871094 C 24.871094 -27.632812 20.746094 -30.222656 15.351562 -30.222656 C 12.28125 -30.222656 1.140625 -27.414062 1.097656 -15.089844 C 1.050781 -5.570312 7.675781 0.175781 16.054688 0.484375 Z M 16.054688 0.484375 "/></g></g></g><g fill="#f5bcb1" fill-opacity="1"><g transform="translate(215.217076, 214.491786)"><g><path d="M 16.40625 -29.609375 L 16.40625 -29.34375 C 18.027344 -25.617188 17.324219 -20.175781 13.859375 -16.492188 L 12.238281 -14.78125 L 12.238281 -26.886719 L 14.476562 -29.34375 L 14.476562 -29.609375 L 1.402344 -29.609375 L 1.402344 -29.34375 L 3.640625 -26.886719 L 3.640625 -2.71875 L 1.402344 -0.261719 L 1.402344 0 L 14.476562 0 L 14.476562 -0.261719 L 12.238281 -2.71875 L 12.238281 -13.640625 L 12.414062 -13.816406 L 18.289062 -2.542969 L 16.140625 -0.261719 L 16.140625 0 L 28.421875 0 L 28.421875 -0.308594 L 19.738281 -18.070312 L 13.773438 -14.824219 L 13.640625 -15 L 28.511719 -29.34375 L 28.511719 -29.609375 Z M 16.40625 -29.609375 "/></g></g></g><g fill="#f5bcb1" fill-opacity="1"><g transform="translate(244.384831, 214.491786)"><g><path d="M 13.683594 -20.265625 C 8.289062 -23.464844 6.140625 -24.652344 6.140625 -26.492188 C 6.140625 -27.503906 6.886719 -28.203125 8.332031 -28.203125 C 12.71875 -28.203125 18.816406 -24.035156 23.773438 -17.371094 L 24.035156 -17.371094 L 24.035156 -30.089844 L 23.816406 -30.089844 L 21.011719 -28.335938 C 19.386719 -29.34375 16.929688 -30.179688 13.859375 -30.179688 C 7.765625 -30.179688 2.808594 -27.941406 2.71875 -21.710938 C 2.632812 -16.929688 5.746094 -14.695312 9.429688 -12.5 L 14.519531 -9.386719 C 18.6875 -6.929688 22.28125 -5.261719 22.28125 -3.289062 C 22.28125 -2.457031 21.710938 -1.578125 19.738281 -1.578125 C 16.40625 -1.578125 7.324219 -4.167969 2.019531 -14.695312 L 1.710938 -14.648438 L 2.457031 -1.140625 C 6.402344 -0.570312 10 0.878906 14.253906 0.878906 C 21.84375 0.878906 25.617188 -3.773438 25.617188 -8.464844 C 25.617188 -12.195312 23.203125 -14.5625 18.949219 -17.0625 Z M 13.683594 -20.265625 "/></g></g></g><g fill="#f5bcb1" fill-opacity="1"><g transform="translate(120.064077, 242.369615)"><g/></g></g><g fill="#f5bcb1" fill-opacity="1"><g transform="translate(122.974197, 242.369615)"><g><path d="M 4.765625 -3.0625 L 4.765625 -4.21875 L 0.679688 -4.21875 L 0.679688 -3.0625 Z M 4.765625 -3.0625 "/></g></g></g><g fill="#f5bcb1" fill-opacity="1"><g transform="translate(128.414767, 242.369615)"><g/></g></g><g fill="#f5bcb1" fill-opacity="1"><g transform="translate(131.325472, 242.369615)"><g><path d="M 0.273438 -8.550781 L 0.953125 -8.425781 L 0.953125 -1.101562 L 0.273438 -0.980469 L 0.273438 0 L 2.996094 0 C 5.566406 0 6.125 -3.527344 4.53125 -4.902344 C 5.878906 -6.304688 5.417969 -9.527344 2.996094 -9.527344 L 0.273438 -9.527344 Z M 2.996094 -4.273438 C 4.410156 -4.273438 4.425781 -1.15625 2.996094 -1.15625 L 2.3125 -1.15625 L 2.3125 -4.273438 Z M 2.996094 -8.359375 C 4.21875 -8.359375 4.234375 -5.445312 2.996094 -5.445312 L 2.3125 -5.445312 L 2.3125 -8.359375 Z M 2.996094 -8.359375 "/></g></g></g><g fill="#f5bcb1" fill-opacity="1"><g transform="translate(137.078871, 242.369615)"><g><path d="M 0.273438 -8.550781 L 0.953125 -8.425781 L 0.953125 -1.101562 L 0.273438 -0.980469 L 0.273438 0 L 2.996094 0 L 2.996094 -0.980469 L 2.3125 -1.101562 L 2.3125 -8.425781 L 2.996094 -8.550781 L 2.996094 -9.527344 L 0.273438 -9.527344 Z M 0.273438 -8.550781 "/></g></g></g><g fill="#f5bcb1" fill-opacity="1"><g transform="translate(140.343218, 242.369615)"><g><path d="M 0.273438 -9.527344 L 0.273438 -8.550781 L 0.953125 -8.425781 L 0.953125 -1.101562 L 0.273438 -0.980469 L 0.273438 0 L 4.847656 0 L 4.847656 -2.042969 L 3.867188 -2.042969 L 3.703125 -1.15625 L 2.3125 -1.15625 L 2.3125 -8.425781 L 2.996094 -8.550781 L 2.996094 -9.527344 Z M 0.273438 -9.527344 "/></g></g></g><g fill="#f5bcb1" fill-opacity="1"><g transform="translate(145.185327, 242.369615)"><g><path d="M 0.273438 -9.527344 L 0.273438 -8.550781 L 0.953125 -8.425781 L 0.953125 -1.101562 L 0.273438 -0.980469 L 0.273438 0 L 4.847656 0 L 4.847656 -2.042969 L 3.867188 -2.042969 L 3.703125 -1.15625 L 2.3125 -1.15625 L 2.3125 -8.425781 L 2.996094 -8.550781 L 2.996094 -9.527344 Z M 0.273438 -9.527344 "/></g></g></g><g fill="#f5bcb1" fill-opacity="1"><g transform="translate(150.027435, 242.369615)"><g><path d="M 0.273438 -8.550781 L 0.953125 -8.425781 L 0.953125 -1.101562 L 0.273438 -0.980469 L 0.273438 0 L 2.996094 0 L 2.996094 -0.980469 L 2.3125 -1.101562 L 2.3125 -8.425781 L 2.996094 -8.550781 L 2.996094 -9.527344 L 0.273438 -9.527344 Z M 0.273438 -8.550781 "/></g></g></g><g fill="#f5bcb1" fill-opacity="1"><g transform="translate(153.291782, 242.369615)"><g><path d="M 0.339844 -4.792969 C 0.339844 -2.382812 1.183594 0 2.84375 0 L 4.886719 0 L 4.886719 -5.445312 L 2.84375 -5.445312 L 2.84375 -4.464844 L 3.527344 -4.34375 L 3.527344 -1.15625 L 2.84375 -1.15625 C 2.097656 -1.15625 1.769531 -3.007812 1.769531 -4.804688 C 1.769531 -6.902344 2.558594 -8.496094 3.675781 -8.453125 L 3.90625 -7.1875 L 4.886719 -7.1875 L 4.886719 -9.230469 C 4.503906 -9.554688 4.03125 -9.71875 3.539062 -9.71875 C 2.042969 -9.71875 0.339844 -8.207031 0.339844 -4.792969 Z M 0.339844 -4.792969 "/></g></g></g><g fill="#f5bcb1" fill-opacity="1"><g transform="translate(158.854773, 242.369615)"><g><path d="M 0.679688 1.359375 C 1.429688 1.359375 2.042969 0.75 2.042969 0 L 2.042969 -1.359375 L 0.679688 -1.359375 L 0.679688 0 L 1.171875 0 C 1.171875 0.382812 0.859375 0.679688 0.488281 0.679688 Z M 0.679688 1.359375 "/></g></g></g><g fill="#f5bcb1" fill-opacity="1"><g transform="translate(161.575058, 242.369615)"><g/></g></g><g fill="#f5bcb1" fill-opacity="1"><g transform="translate(164.485763, 242.369615)"><g><path d="M 2.996094 0 L 2.996094 -0.980469 L 2.3125 -1.101562 L 2.3125 -5.445312 L 4.929688 0 L 6.832031 0 L 6.832031 -0.980469 L 5.894531 -1.171875 L 3.824219 -5.445312 L 5.675781 -8.34375 L 6.5625 -8.550781 L 6.5625 -9.527344 L 3.769531 -9.527344 L 3.769531 -8.550781 L 4.261719 -8.480469 L 2.3125 -5.445312 L 2.3125 -8.425781 L 2.996094 -8.550781 L 2.996094 -9.527344 L 0.273438 -9.527344 L 0.273438 -8.550781 L 0.953125 -8.425781 L 0.953125 -1.101562 L 0.273438 -0.980469 L 0.273438 0 Z M 2.996094 0 "/></g></g></g><g fill="#f5bcb1" fill-opacity="1"><g transform="translate(171.585705, 242.369615)"><g><path d="M 0.273438 -0.285156 C 0.667969 0.0390625 1.117188 0.191406 1.566406 0.191406 C 2.601562 0.191406 3.582031 -0.597656 3.582031 -1.851562 L 3.582031 -9.527344 L 0.273438 -9.527344 L 0.273438 -7.488281 L 1.253906 -7.488281 L 1.414062 -8.359375 L 2.21875 -8.359375 L 2.21875 -1.851562 C 2.21875 -1.375 1.917969 -1.089844 1.484375 -1.089844 L 1.253906 -2.328125 L 0.273438 -2.328125 Z M 0.273438 -0.285156 "/></g></g></g><g fill="#f5bcb1" fill-opacity="1"><g transform="translate(175.842953, 242.369615)"><g><path d="M 0.273438 -0.980469 L 0.273438 0 L 2.789062 0 L 2.789062 -0.980469 L 2.285156 -1.074219 L 2.492188 -2.914062 L 3.648438 -2.914062 L 3.839844 -1.074219 L 3.335938 -0.980469 L 3.335938 0 L 5.855469 0 L 5.855469 -0.980469 L 5.160156 -1.117188 L 4.03125 -9.527344 L 1.320312 -9.527344 L 1.320312 -8.550781 L 1.960938 -8.425781 L 0.980469 -1.117188 Z M 2.613281 -4.082031 L 3.0625 -8.167969 L 3.527344 -4.082031 Z M 2.613281 -4.082031 "/></g></g></g><g fill="#f5bcb1" fill-opacity="1"><g transform="translate(181.963594, 242.369615)"><g><path d="M 2.996094 0 L 2.996094 -0.980469 L 2.3125 -1.101562 L 2.3125 -3.960938 C 2.640625 -3.605469 3.0625 -3.402344 3.5 -3.402344 C 5.949219 -3.402344 6.195312 -9.527344 3.253906 -9.527344 L 0.273438 -9.527344 L 0.273438 -8.550781 L 0.964844 -8.414062 L 0.964844 -1.359375 L 0.953125 -1.359375 L 0.953125 -1.101562 L 0.273438 -0.980469 L 0.273438 0 Z M 3.050781 -4.628906 C 2.65625 -4.628906 2.3125 -4.96875 2.3125 -5.324219 L 2.3125 -8.359375 L 3.253906 -8.359375 C 4.289062 -8.359375 4.382812 -4.628906 3.050781 -4.628906 Z M 3.050781 -4.628906 "/></g></g></g><g fill="#f5bcb1" fill-opacity="1"><g transform="translate(187.716993, 242.369615)"><g><path d="M 0 -7.488281 L 0.980469 -7.488281 L 1.144531 -8.359375 L 1.703125 -8.359375 L 1.703125 -1.101562 L 1.019531 -0.980469 L 1.019531 0 L 3.742188 0 L 3.742188 -0.980469 L 3.0625 -1.101562 L 3.0625 -8.359375 L 3.621094 -8.359375 L 3.785156 -7.488281 L 4.765625 -7.488281 L 4.765625 -9.527344 L 0 -9.527344 Z M 0 -7.488281 "/></g></g></g><g fill="#f5bcb1" fill-opacity="1"><g transform="translate(192.477491, 242.369615)"><g><path d="M 0.679688 1.359375 C 1.429688 1.359375 2.042969 0.75 2.042969 0 L 2.042969 -1.359375 L 0.679688 -1.359375 L 0.679688 0 L 1.171875 0 C 1.171875 0.382812 0.859375 0.679688 0.488281 0.679688 Z M 0.679688 1.359375 "/></g></g></g><g fill="#f5bcb1" fill-opacity="1"><g transform="translate(195.197776, 242.369615)"><g/></g></g><g fill="#f5bcb1" fill-opacity="1"><g transform="translate(198.108481, 242.369615)"><g><path d="M 0.339844 -4.792969 C 0.339844 -1.46875 1.796875 0.191406 3.265625 0.191406 C 4.722656 0.191406 6.179688 -1.46875 6.179688 -4.765625 C 6.179688 -8.085938 4.710938 -9.746094 3.253906 -9.746094 C 1.796875 -9.746094 0.339844 -8.101562 0.339844 -4.792969 Z M 4.75 -4.738281 C 4.75 -2.300781 4.015625 -1.089844 3.265625 -1.089844 C 2.53125 -1.089844 1.785156 -2.300781 1.785156 -4.738281 C 1.785156 -7.175781 2.53125 -8.398438 3.265625 -8.398438 C 4.015625 -8.398438 4.75 -7.175781 4.75 -4.738281 Z M 4.75 -4.738281 "/></g></g></g><g fill="#f5bcb1" fill-opacity="1"><g transform="translate(204.623562, 242.369615)"><g><path d="M 0.339844 -4.792969 C 0.339844 -2.382812 1.183594 0 2.84375 0 L 4.886719 0 L 4.886719 -5.445312 L 2.84375 -5.445312 L 2.84375 -4.464844 L 3.527344 -4.34375 L 3.527344 -1.15625 L 2.84375 -1.15625 C 2.097656 -1.15625 1.769531 -3.007812 1.769531 -4.804688 C 1.769531 -6.902344 2.558594 -8.496094 3.675781 -8.453125 L 3.90625 -7.1875 L 4.886719 -7.1875 L 4.886719 -9.230469 C 4.503906 -9.554688 4.03125 -9.71875 3.539062 -9.71875 C 2.042969 -9.71875 0.339844 -8.207031 0.339844 -4.792969 Z M 0.339844 -4.792969 "/></g></g></g><g fill="#f5bcb1" fill-opacity="1"><g transform="translate(210.186554, 242.369615)"><g/></g></g><g fill="#f5bcb1" fill-opacity="1"><g transform="translate(213.097259, 242.369615)"><g><path d="M 4.847656 0 L 4.847656 -2.042969 L 3.867188 -2.042969 L 3.703125 -1.15625 L 2.3125 -1.15625 L 2.3125 -4.273438 L 3.867188 -4.273438 L 3.867188 -5.445312 L 2.3125 -5.445312 L 2.3125 -8.359375 L 3.703125 -8.359375 L 3.867188 -7.488281 L 4.847656 -7.488281 L 4.847656 -9.527344 L 0.273438 -9.527344 L 0.273438 -8.550781 L 0.953125 -8.425781 L 0.953125 -1.101562 L 0.273438 -0.980469 L 0.273438 0 Z M 4.847656 0 "/></g></g></g><g fill="#f5bcb1" fill-opacity="1"><g transform="translate(218.211399, 242.369615)"><g><path d="M 2.996094 0 L 2.996094 -0.980469 L 2.3125 -1.101562 L 2.3125 -5.609375 L 4.246094 0 L 6.289062 0 L 6.289062 -0.980469 L 5.609375 -1.101562 L 5.609375 -8.425781 L 6.289062 -8.550781 L 6.289062 -9.527344 L 3.566406 -9.527344 L 3.566406 -8.550781 L 4.246094 -8.425781 L 4.246094 -3.921875 L 2.3125 -9.527344 L 0.273438 -9.527344 L 0.273438 -8.550781 L 0.953125 -8.425781 L 0.953125 -1.101562 L 0.273438 -0.980469 L 0.273438 0 Z M 2.996094 0 "/></g></g></g><g fill="#f5bcb1" fill-opacity="1"><g transform="translate(224.767291, 242.369615)"><g><path d="M 2.996094 0 L 2.996094 -0.980469 L 2.3125 -1.101562 L 2.3125 -5.445312 L 4.929688 0 L 6.832031 0 L 6.832031 -0.980469 L 5.894531 -1.171875 L 3.824219 -5.445312 L 5.675781 -8.34375 L 6.5625 -8.550781 L 6.5625 -9.527344 L 3.769531 -9.527344 L 3.769531 -8.550781 L 4.261719 -8.480469 L 2.3125 -5.445312 L 2.3125 -8.425781 L 2.996094 -8.550781 L 2.996094 -9.527344 L 0.273438 -9.527344 L 0.273438 -8.550781 L 0.953125 -8.425781 L 0.953125 -1.101562 L 0.273438 -0.980469 L 0.273438 0 Z M 2.996094 0 "/></g></g></g><g fill="#f5bcb1" fill-opacity="1"><g transform="translate(231.867233, 242.369615)"><g><path d="M 4.847656 0 L 4.847656 -2.042969 L 3.867188 -2.042969 L 3.703125 -1.15625 L 2.3125 -1.15625 L 2.3125 -4.273438 L 3.867188 -4.273438 L 3.867188 -5.445312 L 2.3125 -5.445312 L 2.3125 -8.359375 L 3.703125 -8.359375 L 3.867188 -7.488281 L 4.847656 -7.488281 L 4.847656 -9.527344 L 0.273438 -9.527344 L 0.273438 -8.550781 L 0.953125 -8.425781 L 0.953125 -1.101562 L 0.273438 -0.980469 L 0.273438 0 Z M 4.847656 0 "/></g></g></g><g fill="#f5bcb1" fill-opacity="1"><g transform="translate(236.981373, 242.369615)"><g><path d="M 0.273438 -9.527344 L 0.273438 -8.550781 L 0.953125 -8.425781 L 0.953125 -1.101562 L 0.273438 -0.980469 L 0.273438 0 L 4.847656 0 L 4.847656 -2.042969 L 3.867188 -2.042969 L 3.703125 -1.15625 L 2.3125 -1.15625 L 2.3125 -8.425781 L 2.996094 -8.550781 L 2.996094 -9.527344 Z M 0.273438 -9.527344 "/></g></g></g><g fill="#f5bcb1" fill-opacity="1"><g transform="translate(241.823482, 242.369615)"><g><path d="M 0 -7.488281 L 0.980469 -7.488281 L 1.144531 -8.359375 L 1.703125 -8.359375 L 1.703125 -1.101562 L 1.019531 -0.980469 L 1.019531 0 L 3.742188 0 L 3.742188 -0.980469 L 3.0625 -1.101562 L 3.0625 -8.359375 L 3.621094 -8.359375 L 3.785156 -7.488281 L 4.765625 -7.488281 L 4.765625 -9.527344 L 0 -9.527344 Z M 0 -7.488281 "/></g></g></g><g fill="#f5bcb1" fill-opacity="1"><g transform="translate(246.58398, 242.369615)"><g/></g></g><g fill="#f5bcb1" fill-opacity="1"><g transform="translate(249.494685, 242.369615)"><g><path d="M 4.765625 -3.0625 L 4.765625 -4.21875 L 0.679688 -4.21875 L 0.679688 -3.0625 Z M 4.765625 -3.0625 "/></g></g></g></svg>