<svg xmlns="http://www.w3.org/2000/svg" xmlns:xlink="http://www.w3.org/1999/xlink" width="600" zoomAndPan="magnify" viewBox="0 0 450 225" height="300" preserveAspectRatio="xMidYMid meet" version="1.0"><defs><g/></defs><g fill="#2a4a2b" fill-opacity="1"><g transform="translate(78.05859, 107.615571)"><g><path d="M 0.738281 -15.996094 C 0.738281 -4.773438 11.027344 1.035156 21.410156 0.984375 C 35.144531 0.933594 41.789062 -6.546875 41.789062 -16.195312 C 41.789062 -38.6875 6.742188 -36.328125 6.742188 -45.628906 C 6.742188 -46.121094 7.234375 -47.105469 7.875 -47.105469 C 14.472656 -47.105469 22.640625 -37.902344 31.894531 -37.902344 C 35.195312 -37.902344 40.363281 -40.855469 40.363281 -45.824219 C 40.363281 -47.105469 40.019531 -48.140625 39.425781 -49.222656 L 7.382812 -49.222656 C 4.28125 -49.222656 1.378906 -44.25 1.378906 -40.265625 C 1.378906 -34.554688 4.332031 -30.222656 8.515625 -26.726562 C 3.988281 -25.003906 0.738281 -20.574219 0.738281 -15.996094 Z M 35.441406 -7.285156 C 35.441406 -5.21875 33.519531 -3.445312 30.664062 -3.445312 C 20.28125 -3.445312 10.089844 -19.097656 9.894531 -25.644531 C 19.984375 -17.964844 35.441406 -14.175781 35.441406 -7.285156 Z M 35.441406 -7.285156 "/></g></g></g><g fill="#2a4a2b" fill-opacity="1"><g transform="translate(120.583563, 107.615571)"><g><path d="M 2.214844 -17.769531 C 2.214844 -35.441406 12.847656 -45.875 19.933594 -47.695312 C 20.230469 -30.320312 12.304688 -6.742188 7.039062 0 L 35.441406 0 C 30.171875 -6.742188 22.25 -30.320312 22.25 -47.695312 C 29.386719 -45.875 40.019531 -35.441406 40.019531 -17.769531 L 41.25 -17.769531 L 41.25 -49.222656 L 0.984375 -49.222656 L 0.984375 -17.769531 Z M 2.214844 -17.769531 "/></g></g></g><g fill="#2a4a2b" fill-opacity="1"><g transform="translate(162.813221, 107.615571)"><g><path d="M 1.476562 -49.222656 L 1.476562 -16.6875 C 1.476562 -9.695312 4.972656 0 17.128906 0 L 39.671875 0 L 39.671875 -49.222656 L 21.953125 -49.222656 L 21.953125 -4.527344 C 20.035156 -3.296875 17.472656 -2.804688 14.472656 -2.804688 C 7.582031 -2.804688 5.710938 -9.253906 5.710938 -12.550781 C 5.710938 -22.742188 18.210938 -35.390625 18.3125 -45.1875 C 18.3125 -46.566406 18.113281 -47.941406 17.574219 -49.222656 Z M 1.476562 -49.222656 "/></g></g></g><g fill="#2a4a2b" fill-opacity="1"><g transform="translate(203.960062, 107.615571)"><g><path d="M 1.476562 -49.222656 L 1.476562 0 L 23.378906 0 C 31.207031 0 42.871094 -7.777344 42.871094 -24.609375 C 42.871094 -41.445312 31.207031 -49.222656 23.378906 -49.222656 Z M 18.015625 -1.722656 L 18.015625 -47.5 L 20.179688 -47.5 C 25.941406 -47.5 25.941406 -36.375 25.941406 -24.609375 C 25.941406 -13.09375 25.644531 -1.722656 20.179688 -1.722656 Z M 18.015625 -1.722656 "/></g></g></g><g fill="#2a4a2b" fill-opacity="1"><g transform="translate(247.567841, 107.615571)"><g><path d="M 1.476562 0 L 38.441406 0 L 38.441406 -24.609375 L 37.949219 -24.609375 C 36.179688 -11.171875 28.796875 -3.25 19.195312 -1.917969 L 19.195312 -26.433594 C 21.855469 -25.59375 25.203125 -18.949219 25.890625 -13.488281 L 26.382812 -13.488281 L 26.382812 -40.3125 L 25.890625 -40.3125 C 25.203125 -34.847656 21.855469 -28.203125 19.195312 -27.367188 L 19.195312 -47.351562 C 28.597656 -46.464844 34.503906 -42.035156 37.949219 -28.796875 L 38.441406 -28.796875 L 38.441406 -49.222656 L 1.476562 -49.222656 Z M 1.476562 0 "/></g></g></g><g fill="#2a4a2b" fill-opacity="1"><g transform="translate(287.484225, 107.615571)"><g><path d="M 1.476562 -49.222656 L 1.476562 0 L 11.222656 0 C 11.8125 -0.394531 12.402344 -1.820312 12.402344 -4.824219 C 12.402344 -15.011719 3.25 -25.695312 3.25 -41.394531 L 3.25 -45.039062 L 22.003906 0 L 40.757812 0 L 40.757812 -49.222656 L 31.011719 -49.222656 C 30.417969 -48.828125 29.828125 -47.402344 29.828125 -44.398438 C 29.828125 -34.210938 38.984375 -23.527344 38.984375 -7.828125 L 38.984375 -4.234375 L 20.082031 -49.222656 Z M 1.476562 -49.222656 "/></g></g></g><g fill="#2a4a2b" fill-opacity="1"><g transform="translate(329.713883, 107.615571)"><g><path d="M 2.214844 -17.769531 C 2.214844 -35.441406 12.847656 -45.875 19.933594 -47.695312 C 20.230469 -30.320312 12.304688 -6.742188 7.039062 0 L 35.441406 0 C 30.171875 -6.742188 22.25 -30.320312 22.25 -47.695312 C 29.386719 -45.875 40.019531 -35.441406 40.019531 -17.769531 L 41.25 -17.769531 L 41.25 -49.222656 L 0.984375 -49.222656 L 0.984375 -17.769531 Z M 2.214844 -17.769531 "/></g></g></g><g fill="#2a4a2b" fill-opacity="1"><g transform="translate(95.894527, 156.365569)"><g><path d="M 0.738281 -15.996094 C 0.738281 -4.773438 11.027344 1.035156 21.410156 0.984375 C 35.144531 0.933594 41.789062 -6.546875 41.789062 -16.195312 C 41.789062 -38.6875 6.742188 -36.328125 6.742188 -45.628906 C 6.742188 -46.121094 7.234375 -47.105469 7.875 -47.105469 C 14.472656 -47.105469 22.640625 -37.902344 31.894531 -37.902344 C 35.195312 -37.902344 40.363281 -40.855469 40.363281 -45.824219 C 40.363281 -47.105469 40.019531 -48.140625 39.425781 -49.222656 L 7.382812 -49.222656 C 4.28125 -49.222656 1.378906 -44.25 1.378906 -40.265625 C 1.378906 -34.554688 4.332031 -30.222656 8.515625 -26.726562 C 3.988281 -25.003906 0.738281 -20.574219 0.738281 -15.996094 Z M 35.441406 -7.285156 C 35.441406 -5.21875 33.519531 -3.445312 30.664062 -3.445312 C 20.28125 -3.445312 10.089844 -19.097656 9.894531 -25.644531 C 19.984375 -17.964844 35.441406 -14.175781 35.441406 -7.285156 Z M 35.441406 -7.285156 "/></g></g></g><g fill="#2a4a2b" fill-opacity="1"><g transform="translate(138.4195, 156.365569)"><g><path d="M 1.476562 -49.222656 L 1.476562 0 L 11.222656 0 C 11.8125 -0.394531 12.402344 -1.820312 12.402344 -4.824219 C 12.402344 -15.011719 3.25 -25.695312 3.25 -41.394531 L 3.25 -45.039062 L 22.003906 0 L 40.757812 0 L 40.757812 -49.222656 L 31.011719 -49.222656 C 30.417969 -48.828125 29.828125 -47.402344 29.828125 -44.398438 C 29.828125 -34.210938 38.984375 -23.527344 38.984375 -7.828125 L 38.984375 -4.234375 L 20.082031 -49.222656 Z M 1.476562 -49.222656 "/></g></g></g><g fill="#2a4a2b" fill-opacity="1"><g transform="translate(180.649158, 156.365569)"><g><path d="M 1.476562 -32.535156 L 1.476562 0 L 18.457031 0 C 19 -1.28125 19.195312 -2.65625 19.195312 -4.035156 C 19.195312 -10.1875 14.125 -17.523438 10.433594 -24.609375 L 22.839844 -24.609375 L 22.839844 0 L 40.558594 0 L 40.558594 -49.222656 L 17.375 -49.222656 C 4.871094 -49.222656 1.476562 -39.527344 1.476562 -32.535156 Z M 6.597656 -36.671875 C 6.597656 -39.96875 7.925781 -47.15625 15.851562 -47.15625 C 19.050781 -47.15625 20.527344 -47.15625 22.839844 -47.15625 L 22.839844 -26.335938 L 9.597656 -26.335938 C 7.828125 -29.925781 6.597656 -33.421875 6.597656 -36.671875 Z M 6.597656 -36.671875 "/></g></g></g><g fill="#2a4a2b" fill-opacity="1"><g transform="translate(222.632722, 156.365569)"><g><path d="M 23.921875 0.984375 C 35.292969 0.984375 44.347656 -5.859375 42.578125 -14.570312 C 41.886719 -12.15625 38.097656 -10.976562 34.40625 -11.027344 C 24.5625 -11.171875 13.042969 -21.066406 13.042969 -38.542969 C 13.042969 -43.808594 15.109375 -47.15625 18.457031 -47.15625 C 27.761719 -47.15625 32.09375 -25.546875 32.632812 -19.050781 L 33.125 -19.050781 L 42.183594 -44.941406 C 42.183594 -44.941406 36.472656 -50.207031 23.921875 -50.207031 C 9.992188 -50.207031 0.738281 -39.328125 0.738281 -24.609375 C 0.738281 -9.894531 9.992188 0.984375 23.921875 0.984375 Z M 23.921875 0.984375 "/></g></g></g><g fill="#2a4a2b" fill-opacity="1"><g transform="translate(265.945186, 156.365569)"><g><path d="M 17.964844 0 L 17.964844 -25.546875 C 20.574219 -22.199219 26.726562 -14.226562 26.726562 -7.433594 C 26.726562 -4.035156 26.039062 -1.722656 25.101562 0 L 44.152344 0 C 44.59375 -1.671875 44.644531 -2.902344 44.644531 -4.378906 C 44.644531 -25.792969 18.703125 -21.757812 18.703125 -29.238281 C 18.703125 -33.226562 22.148438 -36.328125 26.089844 -36.328125 C 33.519531 -36.328125 39.527344 -28.796875 42.085938 -22.640625 L 42.578125 -22.640625 L 42.578125 -47.992188 C 41.347656 -49.222656 38.835938 -50.207031 36.226562 -50.207031 C 27.023438 -50.207031 20.476562 -41.347656 17.964844 -33.519531 L 17.964844 -49.222656 L 1.476562 -49.222656 L 1.476562 0 Z M 17.964844 0 "/></g></g></g><g fill="#2a4a2b" fill-opacity="1"><g transform="translate(311.570924, 156.365569)"><g><path d="M 0.738281 -15.996094 C 0.738281 -4.773438 11.027344 1.035156 21.410156 0.984375 C 35.144531 0.933594 41.789062 -6.546875 41.789062 -16.195312 C 41.789062 -38.6875 6.742188 -36.328125 6.742188 -45.628906 C 6.742188 -46.121094 7.234375 -47.105469 7.875 -47.105469 C 14.472656 -47.105469 22.640625 -37.902344 31.894531 -37.902344 C 35.195312 -37.902344 40.363281 -40.855469 40.363281 -45.824219 C 40.363281 -47.105469 40.019531 -48.140625 39.425781 -49.222656 L 7.382812 -49.222656 C 4.28125 -49.222656 1.378906 -44.25 1.378906 -40.265625 C 1.378906 -34.554688 4.332031 -30.222656 8.515625 -26.726562 C 3.988281 -25.003906 0.738281 -20.574219 0.738281 -15.996094 Z M 35.441406 -7.285156 C 35.441406 -5.21875 33.519531 -3.445312 30.664062 -3.445312 C 20.28125 -3.445312 10.089844 -19.097656 9.894531 -25.644531 C 19.984375 -17.964844 35.441406 -14.175781 35.441406 -7.285156 Z M 35.441406 -7.285156 "/></g></g></g></svg>