<svg width="29" height="29" viewBox="0 0 29 29" fill="none" xmlns="http://www.w3.org/2000/svg">
<mask id="mask0_8_602" style="mask-type:luminance" maskUnits="userSpaceOnUse" x="0" y="0" width="29" height="29">
<path d="M0 0H28.8V28.8H0V0Z" fill="white"/>
</mask>
<g mask="url(#mask0_8_602)">
<path d="M26.1825 0H2.61875C1.1725 0 0 1.17125 0 2.6175V26.1813C0 27.6275 1.1725 28.8 2.61875 28.8H26.1825C27.6288 28.8 28.8 27.6275 28.8 26.1813V2.6175C28.8 1.17125 27.6275 0 26.1825 0ZM24.4663 12.4025C24.2963 12.4175 24.125 12.4288 23.9513 12.4288C21.995 12.4288 20.275 11.4225 19.2725 9.9C19.2725 13.8913 19.2725 18.4338 19.2725 18.51C19.2725 22.025 16.4225 24.8738 12.91 24.8738C9.39625 24.8725 6.54625 22.0225 6.54625 18.5088C6.54625 14.9938 9.39625 12.145 12.91 12.145C13.0425 12.145 13.1725 12.1575 13.3025 12.165V15.3013C13.1713 15.2863 13.0438 15.2625 12.91 15.2625C11.1163 15.2625 9.66125 16.7163 9.66125 18.51C9.66125 20.3038 11.115 21.7575 12.91 21.7575C14.7038 21.7575 16.2888 20.3438 16.2888 18.5513C16.2888 18.4788 16.32 3.92875 16.32 3.92875H19.3163C19.5975 6.6075 21.7613 8.72375 24.4663 8.9175V12.4025Z" fill="white"/>
</g>
</svg>
