<svg width="165" height="228" viewBox="0 0 165 228" fill="none" xmlns="http://www.w3.org/2000/svg">
<path fill-rule="evenodd" clip-rule="evenodd" d="M77.2803 154.168C119.961 154.168 154.561 119.656 154.561 77.0841C154.561 34.5117 119.961 0 77.2803 0C34.5996 0 0 34.5117 0 77.0841C0 119.656 34.5996 154.168 77.2803 154.168ZM77.2804 146.46C115.693 146.46 146.833 115.399 146.833 77.0843C146.833 38.7691 115.693 7.70856 77.2804 7.70856C38.8678 7.70856 7.72818 38.7691 7.72818 77.0843C7.72818 115.399 38.8678 146.46 77.2804 146.46Z" fill="white"/>
<path d="M105.752 144.09L116.431 137.94L165 221.85L154.321 228L105.752 144.09Z" fill="white"/>
</svg>
